<svg width="97" height="33" viewBox="0 0 97 33" fill="none" xmlns="http://www.w3.org/2000/svg">
<g id="logo 1" clip-path="url(#clip0_1_78)">
<g id="Group">
<g id="Group_2">
<path id="Vector" fill-rule="evenodd" clip-rule="evenodd" d="M29.1046 10.8581C28.7669 9.89689 28.1591 9.07304 27.6188 8.24918C27.2135 3.85529 23.4989 1.38373 19.4466 0.765839C16.7451 0.353912 13.3007 0.697185 11.0719 2.4822C7.8976 2.41355 2.83223 2.89413 1.48147 6.05224L0.941162 7.35668L2.29193 7.21937C2.96731 7.15071 3.84531 7.28802 4.52069 7.49398C4.92592 7.63129 5.6013 7.7686 6.1416 8.04322C4.04792 10.3088 3.03485 13.6042 3.10238 18.0668C4.11546 2.41355 23.634 4.67915 27.2135 12.9177C27.6188 13.055 28.0915 12.9863 28.4292 12.7117C29.1046 12.3685 29.3747 11.5446 29.1046 10.8581ZM18.0959 32.8275C13.4357 28.7769 7.0196 21.9114 10.7342 14.84C12.22 11.8879 15.1242 9.89689 18.4336 9.89689C20.9325 9.89689 23.2963 11.064 24.9172 12.9863C13.976 -2.73554 -12.2963 20.813 18.0959 32.8275Z" fill="#EF542E"/>
</g>
</g>
<path id="Vector_2" d="M24.9213 18.2728C23.8407 17.3117 22.3548 16.8311 20.5313 16.8311C18.7078 16.8311 17.2219 17.3803 16.0738 18.4788C14.9932 19.5773 14.4529 20.9504 14.4529 22.5981C14.4529 24.3144 14.9256 25.6875 15.9387 26.6487C16.9518 27.6785 18.4376 28.2277 20.3962 28.2277C21.6795 28.2277 22.8276 27.9531 23.8407 27.4725C24.9888 26.9233 25.7993 25.9621 26.4071 23.9025H24.2459C23.5705 25.2756 22.2873 26.3054 20.3962 26.3054C18.0999 26.3054 16.8843 25.3442 16.6141 23.3533H26.6098V22.1861C26.6098 20.5384 26.0019 19.234 24.9213 18.2728ZM16.6141 21.1563C16.7492 20.4698 17.0869 19.9892 17.6272 19.5086C18.3026 18.8907 19.2481 18.6161 20.4638 18.6161C21.6795 18.6161 22.5575 18.8221 23.2328 19.44C23.7732 19.9205 24.0433 20.4011 24.1784 21.0877H16.6141V21.1563Z" fill="#033048"/>
<path id="Vector_3" d="M36.2646 17.037L32.4824 25.001L28.4301 17.037H26.0663L31.7395 28.0218H33.2929L38.5609 17.037H36.2646Z" fill="#033048"/>
<path id="Vector_4" d="M44.4359 16.8311C42.5449 16.8311 41.059 17.3803 39.9109 18.4101C38.7627 19.44 38.2224 20.813 38.2224 22.5294C38.2224 24.1771 38.7627 25.5502 39.9109 26.6487C40.9915 27.6785 42.4773 28.2277 44.3684 28.2277C46.2595 28.2277 47.7453 27.6785 48.8934 26.6487C50.0416 25.6189 50.5819 24.2458 50.5819 22.5294C50.5819 20.8817 50.0416 19.5086 48.8934 18.4101C47.8128 17.3803 46.327 16.8311 44.4359 16.8311ZM47.4076 25.2756C46.6647 25.9621 45.7192 26.3054 44.4359 26.3054C43.1527 26.3054 42.1396 25.9621 41.4642 25.2756C40.7213 24.589 40.3836 23.6965 40.3836 22.5294C40.3836 21.3623 40.7213 20.4698 41.4642 19.7832C42.1396 19.0967 43.1527 18.7534 44.4359 18.7534C45.7192 18.7534 46.7322 19.0967 47.4076 19.7832C48.083 20.4698 48.4882 21.3623 48.4882 22.5294C48.4882 23.6279 48.1505 24.589 47.4076 25.2756Z" fill="#033048"/>
<path id="Vector_5" d="M53.6197 12.9178H51.5935V28.0218H53.6197V12.9178Z" fill="#033048"/>
<path id="Vector_6" d="M61.5916 16.8311C60.1057 16.8311 59.0251 17.243 57.6743 18.0669V17.037H55.6482V31.4545H57.6743V27.3352C59.0251 28.1591 60.1057 28.571 61.6591 28.571C63.5502 28.571 65.1035 28.0218 66.1842 26.8546C67.1972 25.8248 67.67 24.3831 67.67 22.6667C67.67 20.9504 67.1297 19.5773 66.1166 18.4788C65.036 17.3803 63.4826 16.8311 61.5916 16.8311ZM64.6983 25.4816C64.0229 26.2368 63.0774 26.58 61.8617 26.58C59.2277 26.58 57.9445 25.2756 57.9445 22.5981C57.9445 21.4309 58.2822 20.5384 59.0251 19.7832C59.7005 19.0967 60.7136 18.6848 61.9292 18.6848C63.1449 18.6848 64.0229 19.028 64.6983 19.7832C65.3737 20.5384 65.6439 21.4309 65.6439 22.5981C65.6439 23.9025 65.3062 24.795 64.6983 25.4816Z" fill="#033048"/>
<path id="Vector_7" d="M78.2737 17.449C77.3957 16.7624 76.1124 16.4878 74.6941 16.4878C73.3434 16.4878 71.8575 16.8311 71.1822 17.449V12.9178H69.156V28.0218H71.1822V21.7055C71.1822 20.7444 71.5198 19.9205 72.1277 19.3026C72.7355 18.6847 73.7486 18.4101 74.8292 18.4101C76.7203 18.4101 77.8684 19.1653 77.8684 20.7444V28.0218H79.8946V20.5384C79.9621 19.1653 79.2867 18.1355 78.2737 17.449Z" fill="#033048"/>
<path id="Vector_8" fill-rule="evenodd" clip-rule="evenodd" d="M81.6482 15.252C81.6482 14.84 81.6482 13.7416 81.6482 13.3296C81.6482 12.9864 82.1885 12.6431 82.7288 12.6431C83.2691 12.6431 83.8094 13.055 83.8094 13.3296C83.8094 13.3296 83.8094 14.9087 83.8094 15.252C83.8094 15.5952 83.3366 15.9385 82.7288 15.9385C82.0534 15.9385 81.6482 15.6639 81.6482 15.252Z" fill="#033048"/>
<path id="Vector_9" d="M83.7419 16.6936H81.6482V28.0216H83.7419V16.6936Z" fill="#033048"/>
<path id="Vector_10" fill-rule="evenodd" clip-rule="evenodd" d="M94.0787 27.9531V21.019C94.0787 19.5086 93.1332 18.7534 91.1746 18.7534C90.094 18.7534 89.216 19.028 88.6082 19.6459C88.0003 20.2638 87.7302 21.019 87.7302 21.9802V28.0218H85.6365V17.037H87.7302V17.7922C88.6757 17.1744 89.8238 16.8311 91.1746 16.8311C92.5929 16.8311 93.7411 17.1744 94.6191 17.7922C95.6321 18.4788 96.1724 19.5086 96.1724 20.813V27.9531H94.0787Z" fill="#033048"/>
</g>
<defs>
<clipPath id="clip0_1_78">
<rect width="95.2289" height="32.2676" fill="white" transform="translate(0.941162 0.559845)"/>
</clipPath>
</defs>
</svg>
